<?xml version="1.0" encoding="UTF-8"?>
<!DOCTYPE svg PUBLIC "-//W3C//DTD SVG 1.1//EN" "http://www.w3.org/Graphics/SVG/1.1/DTD/svg11.dtd">
<!-- Creator: CorelDRAW 2019 (64-Bit) -->
<svg xmlns="http://www.w3.org/2000/svg" xml:space="preserve" width="58.7215mm" height="46.9193mm" version="1.1" style="shape-rendering:geometricPrecision; text-rendering:geometricPrecision; image-rendering:optimizeQuality; fill-rule:evenodd; clip-rule:evenodd"
viewBox="0 0 1841.24 1471.18"
 xmlns:xlink="http://www.w3.org/1999/xlink"
 xmlns:xodm="http://www.corel.com/coreldraw/odm/2003">
 <defs>
  <style type="text/css">
   <![CDATA[
    .fil1 {fill:#FEFEFE}
    .fil8 {fill:#5C5C5B}
    .fil7 {fill:#8A8A8A;fill-rule:nonzero}
    .fil2 {fill:#2E2E2D;fill-rule:nonzero}
    .fil6 {fill:url(#id0)}
    .fil5 {fill:url(#id1)}
    .fil0 {fill:url(#id2)}
    .fil4 {fill:url(#id3)}
    .fil3 {fill:url(#id4)}
   ]]>
  </style>
  <linearGradient id="id0" gradientUnits="userSpaceOnUse" x1="712.97" y1="674.76" x2="447.49" y2="409.28">
   <stop offset="0" style="stop-opacity:1; stop-color:#E8E8E8"/>
   <stop offset="1" style="stop-opacity:1; stop-color:#BABABA"/>
  </linearGradient>
  <linearGradient id="id1" gradientUnits="userSpaceOnUse" x1="712.97" y1="674.76" x2="447.49" y2="409.28">
   <stop offset="0" style="stop-opacity:1; stop-color:#D9D9D9"/>
   <stop offset="1" style="stop-opacity:1; stop-color:#888887"/>
  </linearGradient>
  <radialGradient id="id2" gradientUnits="userSpaceOnUse" gradientTransform="matrix(-0.222963 -1.09765 1.06335 -0.257264 136 1408)" cx="616.73" cy="581.1" r="386.97" fx="616.73" fy="581.1">
   <stop offset="0" style="stop-opacity:1; stop-color:#FEFEFE"/>
   <stop offset="1" style="stop-opacity:1; stop-color:#EBEBEB"/>
  </radialGradient>
  <radialGradient id="id3" gradientUnits="userSpaceOnUse" gradientTransform="matrix(-0.500595 -1.54732 2.06274 -0.667391 -49 1096)" cx="382.82" cy="302.03" r="145.84" fx="382.82" fy="302.03">
   <stop offset="0" style="stop-opacity:1; stop-color:#EDC68F"/>
   <stop offset="1" style="stop-opacity:1; stop-color:#DB905E"/>
  </radialGradient>
  <radialGradient id="id4" gradientUnits="userSpaceOnUse" gradientTransform="matrix(-0.182939 -0.565458 0.753819 -0.243895 229 596)" cx="386.96" cy="303.03" r="399.07" fx="386.96" fy="303.03">
   <stop offset="0" style="stop-opacity:1; stop-color:#DC9363"/>
   <stop offset="1" style="stop-opacity:1; stop-color:#C32329"/>
  </radialGradient>
 </defs>
 <g id="Livello_x0020_1">
  <metadata id="CorelCorpID_0Corel-Layer"/>
  <g id="_1868259970208">
   <path class="fil0" d="M1221.38 674.75c-28.46,308.94 -288.28,550.87 -604.65,550.87 -316.36,0 -576.18,-241.93 -604.65,-550.87l335.01 0c26.03,125.06 136.85,219.02 269.64,219.02 132.78,0 243.6,-93.96 269.64,-219.02l335.01 0z"/>
   <path class="fil1" d="M1221.38 674.75c-16.52,179.3 -110.98,336.02 -249.19,435.98 -128.27,-26.34 -235.44,-110.52 -293.08,-224.07 104,-24.08 185.43,-107.06 207.25,-211.91l335.01 0z"/>
   <path class="fil2" d="M1232.35 675.75c-14.56,158.03 -88.54,298.83 -199.39,399.81 -109.86,100.09 -255.93,161.12 -416.24,161.12 -160.31,0 -306.37,-61.03 -416.24,-161.12 -110.84,-100.98 -184.83,-241.78 -199.39,-399.81l-1.11 -12.06 356.06 0 1.83 8.81c12.61,60.57 45.95,113.56 92.27,151.18 45.43,36.9 103.39,59.02 166.56,59.02 63.17,0 121.13,-22.12 166.56,-59.02 46.32,-37.62 79.66,-90.61 92.27,-151.18l1.84 -8.81 356.06 0 -1.11 12.06zm-214.25 383.48c104.08,-94.83 174.46,-225.99 191.06,-373.41l-313.98 0c-14.97,61.96 -50.06,116.07 -97.98,154.99 -49.29,40.03 -112.1,64.03 -180.48,64.03 -68.37,0 -131.19,-24 -180.48,-64.03 -47.92,-38.92 -83.01,-93.03 -97.98,-154.99l-313.98 0c16.6,147.41 86.97,278.58 191.06,373.41 105.92,96.5 246.76,155.33 401.37,155.33 154.61,0 295.46,-58.84 401.37,-155.33z"/>
   <path class="fil3" d="M616.73 11.06c316.37,0 576.19,241.93 604.65,550.87l-335.01 0c-26.03,-125.06 -136.86,-219.02 -269.64,-219.02 -132.78,0 -243.61,93.97 -269.64,219.02l-335.01 0c28.46,-308.94 288.28,-550.87 604.65,-550.87z"/>
   <path class="fil4" d="M1116.97 273.98c57.44,83.3 94.62,181.66 104.41,287.95l-335.01 0c-15.27,-73.38 -59.75,-136.05 -120.73,-175.32 76.16,-72.33 179.12,-116.71 292.45,-116.71 19.98,0 39.63,1.41 58.88,4.08z"/>
   <path class="fil2" d="M616.73 0c160.31,0 306.37,61.03 416.24,161.12 110.84,100.99 184.83,241.79 199.38,399.82l1.11 12.06 -356.06 0 -1.84 -8.81c-12.6,-60.58 -45.95,-113.56 -92.27,-151.19 -45.43,-36.91 -103.4,-59.02 -166.56,-59.02 -63.17,0 -121.13,22.12 -166.56,59.02 -46.32,37.62 -79.67,90.61 -92.27,151.19l-1.83 8.81 -356.06 0 1.11 -12.06c14.56,-158.03 88.54,-298.83 199.38,-399.82 109.87,-100.09 255.93,-161.12 416.24,-161.12zm401.38 177.46c-105.92,-96.5 -246.76,-155.33 -401.38,-155.33 -154.61,0 -295.46,58.84 -401.38,155.33 -104.08,94.83 -174.46,226 -191.06,373.42l313.97 0c14.96,-61.96 50.06,-116.07 97.98,-154.99 49.29,-40.04 112.1,-64.03 180.48,-64.03 68.38,0 131.19,24 180.48,64.03 47.92,38.92 83.02,93.03 97.98,154.99l313.97 0c-16.6,-147.42 -86.97,-278.59 -191.06,-373.42z"/>
   <circle class="fil5" cx="616.73" cy="618.34" r="182.51"/>
   <path class="fil6" d="M704.97 458.55c56.21,31.11 94.28,91 94.28,159.79 0,90.79 -66.29,166.08 -153.11,180.14 -8.35,-33.23 -12.81,-68 -12.81,-103.82 0,-87.38 26.4,-168.59 71.64,-236.12z"/>
   <path class="fil2" d="M616.73 424.76c53.45,0 101.85,21.67 136.88,56.7 35.03,35.03 56.7,83.43 56.7,136.88 0,53.45 -21.67,101.85 -56.7,136.88 -35.03,35.03 -83.43,56.7 -136.88,56.7 -53.45,0 -101.85,-21.67 -136.88,-56.7 -35.03,-35.03 -56.7,-83.42 -56.7,-136.88 0,-53.45 21.67,-101.85 56.7,-136.88 35.03,-35.03 83.42,-56.7 136.88,-56.7zm121.24 72.34c-31.02,-31.02 -73.89,-50.22 -121.24,-50.22 -47.35,0 -90.21,19.19 -121.24,50.22 -31.02,31.02 -50.22,73.89 -50.22,121.24 0,47.35 19.19,90.21 50.22,121.24 31.02,31.03 73.89,50.22 121.24,50.22 47.34,0 90.21,-19.19 121.24,-50.22 31.03,-31.02 50.22,-73.89 50.22,-121.24 0,-47.34 -19.19,-90.21 -50.22,-121.24z"/>
   <path class="fil7" d="M1232.35 675.75c-14.56,158.03 -88.54,298.83 -199.39,399.81 -14.66,13.36 -29.97,26.01 -45.87,37.92 -9.91,-1.67 -19.7,-3.68 -29.36,-6.02 21.16,-14.78 41.33,-30.9 60.37,-48.24 104.08,-94.83 174.46,-225.99 191.06,-373.41l-313.98 0c-14.97,61.96 -50.06,116.07 -97.98,154.99 -32.48,26.39 -70.84,45.8 -112.8,55.98 -3.61,-6.66 -7.03,-13.44 -10.29,-20.31 40.73,-9.01 77.92,-27.4 109.17,-52.78 46.32,-37.62 79.66,-90.61 92.27,-151.18l1.84 -8.81 356.06 0 -1.11 12.06zm-521.08 -226.36c15.57,8.73 29.81,19.55 42.34,32.08 35.03,35.03 56.7,83.43 56.7,136.88 0,53.45 -21.67,101.85 -56.7,136.88 -27.83,27.83 -64.09,47.23 -104.63,54.03 -1.98,-7.11 -3.78,-14.29 -5.41,-21.54 36.6,-5.76 69.36,-23.09 94.39,-48.12 31.03,-31.02 50.22,-73.89 50.22,-121.24 0,-47.34 -19.19,-90.21 -50.22,-121.24 -11.51,-11.51 -24.65,-21.39 -39.05,-29.26 3.96,-6.26 8.08,-12.42 12.35,-18.46zm420.58 -173.08c55.18,82.96 90.86,180.02 100.5,284.64l1.11 12.06 -356.06 0 -1.84 -8.81c-12.6,-60.58 -45.95,-113.56 -92.27,-151.19 -8.19,-6.66 -16.79,-12.83 -25.76,-18.48 5.35,-5.36 10.85,-10.56 16.48,-15.62 8.02,5.28 15.77,10.95 23.2,16.99 47.92,38.92 83.02,93.03 97.98,154.99l313.97 0c-11.61,-103.15 -49.56,-198.35 -106.96,-278.7 9.99,1.03 19.88,2.42 29.65,4.13z"/>
   <path class="fil8" d="M1474.45 984.3c30.89,-0.03 61.79,11.67 85.23,35.11l271.53 271.53c13.38,13.37 13.38,35.25 0,48.63l-121.58 121.58c-13.37,13.37 -35.26,13.38 -48.63,0l-271.53 -271.53c-21.81,-21.81 -33.45,-50.09 -34.94,-78.81 -84.04,62.51 -188.19,99.5 -300.97,99.5 -278.83,0 -504.86,-226.04 -504.86,-504.86 0,-278.83 226.04,-504.86 504.86,-504.86 278.83,0 504.86,226.04 504.86,504.86 0,103.1 -30.93,198.95 -83.97,278.86zm-420.89 -641.78c200.43,0 362.92,162.48 362.92,362.92 0,200.43 -162.48,362.92 -362.92,362.92 -200.43,0 -362.92,-162.48 -362.92,-362.92 0,-200.43 162.48,-362.92 362.92,-362.92z"/>
  </g>
 </g>
</svg>
