<?xml version="1.0" encoding="UTF-8"?>
<!DOCTYPE svg PUBLIC "-//W3C//DTD SVG 1.1//EN" "http://www.w3.org/Graphics/SVG/1.1/DTD/svg11.dtd">
<!-- Creator: CorelDRAW 2019 (64-Bit) -->
<svg xmlns="http://www.w3.org/2000/svg" xml:space="preserve" width="22.4018mm" height="21.4552mm" version="1.1" style="shape-rendering:geometricPrecision; text-rendering:geometricPrecision; image-rendering:optimizeQuality; fill-rule:evenodd; clip-rule:evenodd"
viewBox="0 0 6785.67 6498.93"
 xmlns:xlink="http://www.w3.org/1999/xlink"
 xmlns:xodm="http://www.corel.com/coreldraw/odm/2003">
 <defs>
  <style type="text/css">
   <![CDATA[
    .fil0 {fill:#FEFEFE}
   ]]>
  </style>
 </defs>
 <g id="Livello_x0020_1">
  <metadata id="CorelCorpID_0Corel-Layer"/>
  <path class="fil0" d="M6192.09 1063.69l-2105.96 2867.26c-23.93,32.59 -35.32,67.34 -35.32,107.77l0 1714.82c0,63.4 -29.53,117.89 -82.66,152.51l-863.65 562.68c-57.46,37.44 -125.86,40.2 -186.14,7.51 -60.28,-32.65 -95.29,-91.48 -95.29,-160.06l0 -2333.81c0,-40.26 -11.27,-74.82 -34.99,-107.32l-2051.68 -2811.86c-41.41,-56.76 -47.04,-127.16 -15.24,-189.77 31.84,-62.64 92.05,-99.57 162.3,-99.57l5161.9 0c70.37,0 130.64,37.05 162.42,99.84 31.77,62.76 25.96,133.28 -15.69,189.98zm-6010.04 -1063.69l6421.57 0c100.26,0 182.05,81.78 182.05,182.05l0 153.6c0,100.26 -81.78,182.05 -182.05,182.05l-6421.57 0c-100.26,0 -182.05,-81.78 -182.05,-182.05l0 -153.6c0,-100.26 81.78,-182.05 182.05,-182.05z"/>
 </g>
</svg>
