<?xml version="1.0" encoding="UTF-8"?>
<!DOCTYPE svg PUBLIC "-//W3C//DTD SVG 1.1//EN" "http://www.w3.org/Graphics/SVG/1.1/DTD/svg11.dtd">
<!-- Creator: CorelDRAW 2019 (64-Bit) -->
<svg xmlns="http://www.w3.org/2000/svg" xml:space="preserve" width="106.368mm" height="39.8384mm" version="1.1" style="shape-rendering:geometricPrecision; text-rendering:geometricPrecision; image-rendering:optimizeQuality; fill-rule:evenodd; clip-rule:evenodd"
viewBox="0 0 6897.38 2583.29"
 xmlns:xlink="http://www.w3.org/1999/xlink"
 xmlns:xodm="http://www.corel.com/coreldraw/odm/2003">
 <defs>
  <style type="text/css">
   <![CDATA[
    .fil4 {fill:#FEFEFE}
    .fil2 {fill:#2E59A7}
    .fil0 {fill:#495D8A}
    .fil1 {fill:#F4C81B}
    .fil3 {fill:#FEFEFF}
   ]]>
  </style>
 </defs>
 <g id="Livello_x0020_1">
  <metadata id="CorelCorpID_0Corel-Layer"/>
  <g id="_1803671885200">
   <g>
    <path class="fil0" d="M1897.07 1451.18c166.38,-45.42 172.59,214.41 5.39,248.88 -179.39,36.99 -186.96,-199.31 -5.39,-248.88zm-346.67 406.52c17.18,-24.45 132.58,-94.35 164.38,-106.73 92.01,72.04 195.62,79.17 294.26,13.36 113.81,-75.95 117.98,-152.99 120.62,-276.13 28.17,-22.84 122.23,-85.25 152.4,-89.5 46.21,76.85 13.14,232.14 -26.1,310.45 -181.34,361.94 -618.69,333.71 -705.56,148.56zm3851.64 -507.19c148.56,-85.91 236.8,146.17 61.54,227.04 -69.16,31.92 -156.66,12.22 -164,-73.36 -7.32,-85.34 42.2,-118.83 102.46,-153.67zm205.26 251.17c29.21,10.88 103.17,45.23 119.97,66.19 -61.88,160.85 -532.24,330.88 -667.11,-15.65 -31.25,-80.28 -34.13,-226.16 21.17,-294.79 34.05,6.43 97.88,38.08 120.62,64.6 -11.69,108.96 -8.53,204.53 108.28,256.77 134.54,60.14 204.63,-16.13 297.06,-77.13zm-4111.39 148.08c-70.52,-111.71 17.68,-373.65 203.5,-502.1 223.08,-154.2 493.56,-57.3 528.23,49.77 -15.72,19.47 -135.03,94.52 -157.92,91.85 -55.32,-6.46 -73.95,-71.82 -199.91,-41.18 -233.9,56.89 -206.74,294.07 -212.65,305.99 -21.92,24.74 -131.41,99.1 -161.25,95.66zm3645.57 -487.42c22.01,-65.51 140.76,-134.66 203.24,-157.73 439.68,-162.37 573.9,330.17 440.07,467.58l-125.03 -68.05c4.11,-118.83 9.69,-204.73 -115.42,-258.05 -123.89,-52.78 -199.28,13.67 -284.27,74.31 -32.09,-4.26 -92.51,-39.05 -118.59,-58.07zm-2227.79 -34.65c10.91,-29.43 85.97,-95.6 109.24,-110.24l8.19 156.4 -117.43 -46.17zm1768.55 -192.16c18.84,-30.65 51.2,-258.87 60.43,-316.47 4.38,-27.31 9.99,-54.06 14.25,-81.36 6.24,-39.86 -1.06,-51.36 36.92,-55.63 34.86,-3.92 149.97,-1.19 186.41,2.65 30.67,127.78 44.94,281.76 67.13,414.23 10.17,60.73 40.77,146.74 -0.11,197.21 -118.78,146.65 -158.34,367.65 -64.73,542.18 105.66,196.99 210.82,121.35 214.47,255.42 -40.27,6.5 -280.99,-29.06 -314.85,-46.61l-81.85 -517.87c-33.71,17.46 -10.23,-11.31 -31.16,32.61 -18.42,38.65 -57.01,168.37 -89.51,228.63 -52.63,-59.87 -134.44,-317.16 -178.6,-352.63 -26.52,38.01 -63.49,345.99 -75.38,418.91 -63.01,0.56 -230.71,-30.21 -295.02,-46.47 -0.37,-29.85 27.1,-213.18 36.57,-238.54 8.47,-22.64 107.79,-126.53 124.84,-131.84 -11.41,-37.55 -51.75,-66.5 -87.51,-94.8l100.06 -593.01c57.08,-7.79 250.52,-8.61 304.33,2.31 10.56,62.71 54.8,347.99 73.3,381.08zm-663.73 36.99c11.74,-22.57 28.94,-37.93 45.99,-56.99l38.14 -39.78c16.27,-11.34 -4.25,-0.79 22.52,-8.5l-27.24 169.48c-23.7,-3.28 -62.04,-43.62 -79.41,-64.22zm-3845.37 -189.83c785.16,-491.79 1517.21,-170.8 1297.2,360.2 -83.31,201.06 -194.29,262.76 -349.87,389.23 7.95,73.95 54.76,224.83 76.15,303.2 16.81,61.6 75.29,258.68 75.12,308.77l-251.5 81.19c-170.85,-365.31 -342.25,-762.28 -509.43,-1135.66 -9.93,-22.18 -9.88,-23.88 -21.45,-38.22 -48.69,7.48 -81.79,41.48 -129.21,50.97 -28.32,-28.28 -178.31,-276.46 -187,-319.67zm3938.08 457.3c-86.55,139.82 -384.52,236.09 -542.25,232 -500.03,-12.96 -577.54,-640.29 -126.93,-816.88 216,-84.65 506.12,-20.25 567.24,128.34 -41.38,45.96 -368.32,389.31 -372.68,407.94 142.24,20.93 231.13,-93.76 276.65,-125.51 31.36,11.5 179.52,145.12 197.98,174.11zm1612 524c7.29,-60.21 29.91,-54.45 66.32,-98.34 320.68,-386.6 16.11,-672.39 12.05,-684.44 -4.84,-67.33 25.54,-150.72 8.26,-214.93l-82.83 -29.3 8.77 -100c43.19,-4.36 357.94,60.66 413.01,77.1l140.64 643.42c48.57,-119.74 99.43,-461.22 146.06,-575.38l308.23 69.13c-5,46.53 -419.58,1307.27 -441.32,1344.03 -30.18,0.34 -194.4,-49.5 -219.15,-66.93 -15.93,-175.84 -1.63,-664.89 -26.15,-773.76l-108.54 590.12c-65.19,-1.19 -179.02,-39.52 -233.06,-29.73 -8.29,-49.4 1.73,-101.5 7.72,-150.97zm-3587.84 -1064.65l-5.81 -85.66c24.94,-18.34 346.6,-112.62 386.07,-115.39 6.67,60.75 12.16,351.36 28.91,376.95 15.15,11.07 17.65,-8 28.78,-26.22l107.62 -152.1c32.73,-47.5 112.36,-167.33 146.2,-197.81 25.83,11.12 257.26,229.83 274.17,257.69 4.3,27.71 -352.27,354.22 -377.16,414.45 69.79,31.38 143.07,58.24 214.62,86.42 163.57,64.44 124.15,34.66 184.03,117.98 41.74,58.07 99.37,110.19 162.64,142.88 143.33,74.05 169.15,49.5 236.07,77.37 10.76,72.21 -11.7,177.92 5.96,258.21 -152.65,-64.22 -318.98,-154.8 -469.94,-230.63 -69.51,-34.91 -423.97,-222.67 -470.11,-228.01l-0.78 486.33 -240.58 27.34c-24.94,-268.27 -25.23,-138.99 33.65,-314.11 50.41,-149.95 36.99,-310.16 -53.77,-440.51 -49.73,-71.42 -47.56,-31.42 -54.12,-130.06 -3.94,-59.31 -16.45,-292.95 -36.34,-331.63 -43.46,-9.53 -54.03,23.91 -100.13,6.49zm1347.7 -275.67c9.67,-31.09 237.28,-322.76 285.09,-347.25 29.27,36.66 123.79,147.91 126.89,187.21 -60.95,34.1 -132.93,63.26 -196.02,96.76 -33.9,18 -163.3,89.75 -194.99,92.12l-20.97 -28.84zm201.87 68.49c13.37,-23.04 317.15,-181.86 361.23,-198.96 -12.99,-40.14 -231.71,-367.09 -261.28,-393.22 -25.61,13.97 -449.83,502.73 -475.57,547.18l74.44 94.94c-25.06,22.42 -70.25,35.74 -101.98,56.47 -38.41,25.09 -54.14,52.76 -96.31,65.41 -38.82,-43.12 -372.1,-343.53 -402.67,-356.13 -22.05,51 -105.51,222.53 -139.26,253.7l3.05 -243.92c-58.09,11.24 -614.49,189.48 -638.92,206.84l18.12 337.86 107.42 -23.17 12.68 166.77c-107.17,-30.82 -169.41,-50.74 -287.5,-28.73 -138.28,25.78 -166.98,70.01 -233.08,93.93 22.3,-194.82 -8.39,-352.2 -162.65,-485.72 -280.81,-243.07 -716.86,-194.41 -1039.71,-66.86 -97.91,38.67 -355.61,157.49 -422.97,230.02l307.7 522.33 118.04 -52.74c92,148.88 475.49,1109.53 530.61,1159.18l470.96 -154.21 -163.39 -639.84 102.08 -79.64c10.51,59.01 -0.44,106.53 18.95,177.28 71.78,261.93 338.49,385.47 606.29,301.69 127.34,-39.84 210.13,-128.12 235.46,-134.58l22.68 194.1c27.28,9.98 386.83,-50.83 448.31,-60.66l-0.24 -399.6c109.15,31.23 816.62,421.33 943.46,456.96 2.45,-584.09 -60.84,-405.32 209.08,-492.02 57.97,-18.62 127.14,-60.45 176.26,-73.9l-34.8 236.31 500.97 76.66c22.12,-45.92 21.54,-114.66 32.25,-167.78 31.67,26.94 107.08,179.7 128.51,227.07 40.37,-31.22 49.81,-101.8 86.94,-139.31 7.09,61.04 10.73,199.89 34.98,247.01l570.18 97.32 -24.91 -188.28c121.51,-5.51 176.42,-2.54 292.04,-56.14l-20.2 203.75 381.61 54.45 6.4 157.19 399.15 121.12 518.01 -1567.13 -540.5 -128.98 -35.15 144.74c-3.18,10.78 -2.81,11.04 -7.68,20.67 -6.37,12.59 -4.73,9.18 -13.81,19.45l-43.69 -210.09 -636.97 -138.11 5.43 352.07 93.61 25.83 -6.03 54.5c-56.2,-6.59 -120.11,-65.06 -284.73,-43.7 -108.35,14.06 -153.88,43.61 -243.85,94.24l-103.3 -600.35 -426.08 1.52 -12.42 67.57 -445.66 0.65 -50.03 304.92c-73.98,-47.06 -118.79,-214.09 -461.57,-247.96z"/>
    <path class="fil1" d="M938.5 1022.69c88.16,-88.23 325.45,-44.72 345.24,118.7 18.36,151.62 -91.7,271.57 -210.25,326.66 -23.69,-34.42 -133.49,-400.3 -134.99,-445.36zm-765.34 -139.97c8.7,43.21 158.69,291.39 187,319.67 47.42,-9.49 80.52,-43.49 129.21,-50.97 11.57,14.34 11.52,16.04 21.45,38.22 167.18,373.37 338.58,770.35 509.43,1135.66l251.5 -81.19c0.18,-50.09 -58.3,-247.17 -75.12,-308.77 -21.39,-78.37 -68.2,-229.25 -76.15,-303.2 155.59,-126.47 266.57,-188.17 349.87,-389.23 220.01,-531 -512.04,-851.99 -1297.2,-360.2z"/>
    <path class="fil1" d="M5727.04 837l82.83 29.3c17.28,64.21 -13.11,147.61 -8.26,214.93 4.06,12.05 308.63,297.84 -12.05,684.44 -36.41,43.89 -59.03,38.13 -66.32,98.34 -5.99,49.47 -16,101.57 -7.72,150.97 54.03,-9.79 167.87,28.54 233.06,29.73l108.54 -590.12c24.52,108.87 10.22,597.92 26.15,773.76 24.76,17.44 188.98,67.28 219.15,66.93 21.75,-36.76 436.32,-1297.5 441.32,-1344.03l-308.23 -69.13c-46.63,114.16 -97.49,455.64 -146.06,575.38l-140.64 -643.42c-55.07,-16.44 -369.82,-81.46 -413.01,-77.1l-8.77 100z"/>
    <path class="fil1" d="M2135.4 799.36c46.1,17.42 56.67,-16.02 100.13,-6.49 19.89,38.68 32.4,272.32 36.34,331.63 6.56,98.64 4.39,58.65 54.12,130.06 90.76,130.35 104.18,290.56 53.77,440.51 -58.88,175.13 -58.59,45.84 -33.65,314.11l240.58 -27.34 0.78 -486.33c46.14,5.34 400.6,193.11 470.11,228.01 150.96,75.82 317.29,166.4 469.94,230.63 -17.66,-80.29 4.8,-186 -5.96,-258.21 -66.93,-27.87 -92.74,-3.33 -236.07,-77.37 -63.28,-32.69 -120.9,-84.81 -162.64,-142.88 -59.88,-83.32 -20.46,-53.54 -184.03,-117.98 -71.55,-28.18 -144.83,-55.05 -214.62,-86.42 24.89,-60.23 381.46,-386.74 377.16,-414.45 -16.91,-27.86 -248.35,-246.57 -274.17,-257.69 -33.84,30.48 -113.47,150.3 -146.2,197.81l-107.62 152.1c-11.13,18.22 -13.63,37.29 -28.78,26.22 -16.76,-25.59 -22.24,-316.2 -28.91,-376.95 -39.47,2.77 -361.13,97.05 -386.07,115.39l5.81 85.66z"/>
    <path class="fil1" d="M4682.25 1035.55c-18.5,-33.1 -62.74,-318.37 -73.3,-381.08 -53.81,-10.92 -247.24,-10.1 -304.33,-2.31l-100.06 593.01c35.76,28.3 76.11,57.25 87.51,94.8 -17.05,5.31 -116.38,109.2 -124.84,131.84 -9.47,25.36 -36.94,208.69 -36.57,238.54 64.31,16.26 232.01,47.03 295.02,46.47 11.89,-72.92 48.85,-380.9 75.38,-418.91 44.17,35.47 125.97,292.76 178.6,352.63 32.5,-60.27 71.1,-189.99 89.51,-228.63 20.93,-43.92 -2.55,-15.15 31.16,-32.61l81.85 517.87c33.86,17.55 274.58,53.11 314.85,46.61 -3.64,-134.07 -108.81,-58.42 -214.47,-255.42 -93.61,-174.53 -54.04,-395.53 64.73,-542.18 40.88,-50.47 10.28,-136.48 0.11,-197.21 -22.19,-132.47 -36.46,-286.46 -67.13,-414.23 -36.44,-3.85 -151.55,-6.57 -186.41,-2.65 -37.98,4.27 -30.68,15.77 -36.92,55.63 -4.27,27.3 -9.88,54.05 -14.25,81.36 -9.23,57.61 -41.6,285.82 -60.43,316.47z"/>
    <path class="fil1" d="M3466.69 1271.56c-107.63,-45.44 -124.38,-231.35 -37.49,-322.14 87.6,-91.54 253.08,-111.33 322.66,-6.62 -9.54,31.14 -257.95,312.8 -285.17,328.76zm644.54 68.45c-18.45,-29 -166.62,-162.62 -197.98,-174.11 -45.51,31.75 -134.4,146.44 -276.65,125.51 4.36,-18.63 331.3,-361.99 372.68,-407.94 -61.12,-148.59 -351.24,-212.99 -567.24,-128.34 -450.62,176.6 -373.1,803.92 126.93,816.88 157.73,4.09 455.71,-92.18 542.25,-232z"/>
    <path class="fil1" d="M1550.4 1857.71c86.87,185.16 524.23,213.38 705.56,-148.56 39.24,-78.31 72.31,-233.6 26.1,-310.45 -30.18,4.25 -124.24,66.67 -152.4,89.5 -2.65,123.15 -6.81,200.19 -120.62,276.13 -98.64,65.82 -202.24,58.68 -294.26,-13.36 -31.8,12.37 -147.2,82.28 -164.38,106.73z"/>
    <path class="fil1" d="M1495.91 1749.77c29.85,3.44 139.33,-70.93 161.25,-95.66 5.91,-11.92 -21.25,-249.1 212.65,-305.99 125.96,-30.64 144.59,34.72 199.91,41.18 22.9,2.67 142.2,-72.37 157.92,-91.85 -34.68,-107.07 -305.15,-203.97 -528.23,-49.77 -185.82,128.45 -274.03,390.39 -203.5,502.1z"/>
    <path class="fil1" d="M5607.3 1601.69c-92.44,61 -162.53,137.27 -297.06,77.13 -116.82,-52.24 -119.97,-147.81 -108.28,-256.77 -22.74,-26.53 -86.57,-58.17 -120.62,-64.6 -55.3,68.63 -52.42,214.51 -21.17,294.79 134.87,346.53 605.23,176.51 667.11,15.65 -16.81,-20.96 -90.77,-55.31 -119.97,-66.19z"/>
    <path class="fil1" d="M5141.49 1262.36c26.08,19.02 86.5,53.81 118.59,58.07 84.99,-60.64 160.39,-127.09 284.27,-74.31 125.11,53.32 119.53,139.21 115.42,258.05l125.03 68.05c133.84,-137.41 -0.39,-629.95 -440.07,-467.58 -62.48,23.07 -181.23,92.22 -203.24,157.73z"/>
    <path class="fil0" d="M1120.48 1311.22c-16.71,-32.56 -69.82,-202.83 -67.3,-234.61 204.48,-14.9 147.84,205.29 67.3,234.61zm-181.98 -288.54c1.5,45.07 111.3,410.94 134.99,445.36 118.55,-55.09 228.62,-175.04 210.25,-326.66 -19.8,-163.42 -257.08,-206.94 -345.24,-118.7z"/>
    <path class="fil0" d="M3467.62 1157.61c-62.4,-105.92 37.84,-224.05 165.94,-201.81 1.76,22.07 12.47,-0.53 -31.57,54.59l-134.36 147.22zm-0.92 113.95c27.22,-15.96 275.63,-297.62 285.17,-328.76 -69.58,-104.71 -235.05,-84.92 -322.66,6.62 -86.88,90.8 -70.14,276.7 37.49,322.14z"/>
    <path class="fil1" d="M3483.09 523.7l20.97 28.84c31.69,-2.37 161.09,-74.12 194.99,-92.12 63.09,-33.5 135.07,-62.66 196.02,-96.76 -3.09,-39.3 -97.62,-150.55 -126.89,-187.21 -47.81,24.49 -275.43,316.16 -285.09,347.25z"/>
    <path class="fil1" d="M1897.07 1451.18c-181.57,49.57 -174,285.87 5.39,248.88 167.2,-34.47 160.99,-294.3 -5.39,-248.88z"/>
    <path class="fil1" d="M5402.04 1350.52c-60.26,34.85 -109.78,68.34 -102.46,153.67 7.34,85.59 94.83,105.28 164,73.36 175.26,-80.87 87.03,-312.95 -61.54,-227.04z"/>
   </g>
   <path class="fil2" d="M1417.66 2377.54l20.62 -77.36c5.5,11.27 14.21,40.21 18.21,51.38 -8.42,10.04 -25.56,21.57 -38.83,25.98zm451.73 -311.02c84.51,-25.76 162.62,40.13 149.17,153.66 -23.51,198.46 -330.32,286.61 -262.99,39.03 14.79,-54.4 80.04,-182.39 113.81,-192.69zm213.95 -9.19c4.94,-37.72 -27,-222.16 73.74,-169.89 8.91,32.85 3.22,101.95 2.65,141.98 16.49,-4.92 30.41,-10.6 47.58,-5.26 13.12,63.42 -14.84,49.31 -46.4,73.3 -2.44,58.3 -2.01,116.2 -3.31,174.47 -1.45,64.47 -0.08,112.69 -77.8,89.37 -11.1,-51.42 7,-178.23 4.23,-243.53 -26.22,4.49 -63.53,19.1 -50.42,-25.54 6.59,-22.46 26.65,-25.6 49.72,-34.91zm-436.18 274.17c-9.33,5.28 -39.88,35 -50.26,44.79 -42.92,40.49 -112.05,90.48 -163.86,116.55 -147.24,74.07 -189.64,-3.48 -144.05,-148.75 29.02,-92.43 144.47,-312.86 204.29,-361.06 83.05,-66.91 71.67,32.01 63.62,63.74 -34.99,9.82 -34.13,-2.94 -58.96,23.83 -23.39,25.22 -77.35,116.27 -91.85,146.83 -23.51,49.56 -85.05,194.08 -40.84,241.71 51.83,9.75 123.65,-51.71 152.12,-74 21.16,-16.55 43.65,-35.8 61.56,-52.74 13.34,-12.61 44.69,-51.85 51.65,-56.43 -40.55,4.28 -65.59,54.88 -118.98,46.53 -25.01,-59.22 36.8,-65.12 79.84,-86.45 15.15,-7.51 94.83,-48.93 110.57,-50.68 1.25,-0.14 3.33,0.05 4.37,-0.01 1.06,-0.06 3.69,1.89 4.46,0.39 0.78,-1.54 3.06,0.21 4.53,0.61 9.4,32.71 -13.44,109.96 -17.29,151.44 -4.35,46.96 21.88,120.99 -44.66,108.33 -21.28,-26.81 -10.45,-78.01 -6.28,-114.63zm637.21 -308.13c4.82,-68.22 -23.78,-217.98 72.82,-180.74 10.35,38.08 3.16,108.42 2.91,153.58 21.51,-8.44 19.14,-11.74 44.74,-7.85 19.3,56.04 -4.09,57.83 -43.85,74.15 -1.06,34.34 3.12,233.13 -11.28,254.75 -10.08,15.13 -45.68,28.38 -64.13,9.66 -12.36,-11.09 -8.44,-6.19 -8.94,-28.83l3.92 -88.87c2.12,-41.37 4.2,-83.97 4.27,-125.34 -24.18,4.16 -27.68,9.08 -49.8,2.17 -9.42,-42.66 11,-54.58 49.34,-62.67zm161.88 41.92c-16.09,-33.45 -3.95,-51.49 19.73,-67.49 81.86,-55.28 144.05,-108.33 180.92,12 19.16,62.52 31.22,243.74 -12.67,269.42 -8.58,5.02 -32.62,10.06 -43.57,6.11 -24.97,-9.01 -9.67,-16.11 -16.92,-33.22 -27.67,30.64 -104.7,62.92 -164.14,48.1 -26.83,-91.35 169.14,-232.79 175.47,-235.48 -1.91,-25.36 -7.15,-37.98 -16.61,-53.09 -72.58,-10.1 -64.03,68.38 -122.21,53.65zm-1237.74 330.04l0.19 76.63c24.98,45.37 13.23,64.7 58.48,91.79 107.41,64.31 247.06,-46.53 320.54,-96.13 65.65,77.61 140.71,37.97 163.02,-10.01 65.5,17.23 97.85,23.14 162.03,-5.35 21.17,-9.4 43.79,-23.24 58.5,-35.04 10.56,-8.49 16.59,-14.96 24.14,-22.4 12.8,-12.61 9.18,-11.93 24.56,-19.91 14.56,39.93 56.89,64.35 116.37,50.88 53.2,-12.04 60.04,-37.46 82.74,-79.78 21.18,40.18 70.9,67.07 131.61,44.76 32.4,-11.91 31,-30.58 58.2,-27.18 103.74,12.98 116.92,-25.68 151.96,-21.63 32.79,3.79 40.34,13.4 80.6,1.27 52.06,-15.69 65.8,-45.64 77.18,-104.04 20.52,-105.33 6.53,-235.61 -43.65,-314.66 -20.96,-33.02 -68.79,-64.88 -129.85,-44.79 -17.07,5.62 -48.91,22.42 -62.76,30.92 -22.49,13.81 -31.92,33.22 -54.83,21.88 -20.58,-51.71 25.78,-137.87 -75.71,-157.07 -48.45,-9.16 -92.42,18.58 -113.84,57.61 -6.57,11.98 -10.65,29.59 -20.67,41.36 -21.13,-56.63 -85.72,-77.85 -147.47,-37.62 -54.77,35.68 -44.88,96.76 -48.12,176.51l-16.59 12.55c-12.95,-2.45 -97.95,-46.61 -169.22,-12.71 -31.49,14.99 -71.09,80.5 -91.63,114.29 -62.61,-17.67 -98.76,13.01 -147.08,36.65 -31.62,15.47 -105.22,42.7 -122.08,60.37 6.06,-17.88 54.68,-98.68 65.05,-106.8 17.59,-13.78 41,-7.65 60.08,-28.21 12.38,-13.33 23.37,-38.62 23.9,-65.25 1.15,-57.65 -13.99,-107 -55.16,-123.15 -108.94,-42.73 -212.73,161 -260.58,245.01 -70.78,124.25 -82.56,218.19 -99.93,249.22z"/>
   <path class="fil2" d="M4429.33 2202.01c54.23,17.34 104.65,-106.66 149.06,-66.34 24.56,40.09 -82.64,94.49 -117.24,112.35 -31.85,16.44 -57.23,32.88 -86.04,3.11 -21.33,-22.03 -28.45,-55.81 -30.53,-93.69 -13.81,-7.57 -26.68,-6.55 -24.82,-30.21 1.69,-21.59 12.5,-24.04 29.71,-30.54 3.85,-61.02 18.51,-119.75 43.54,-165.06 16.69,-30.2 24.25,-35.76 65.08,-18.84 66,27.35 144.32,123.92 38.88,179.18 -72.34,37.92 -87.25,28.34 -83.41,69.55 1.73,18.55 7.43,31.49 15.77,40.48zm233.92 -235.75c23.68,12.21 22.82,31.65 26.03,63.48 0.03,-0.03 108.15,-140.91 155.28,-7.5 26.41,-11.16 38.56,-31.44 81.66,-36.65 114.51,-13.84 83.27,156.47 83.54,263.66 0.08,33.97 3.73,47.62 -8.52,74.69 -34.01,9.53 -52.5,8.63 -73.73,-12.7 -12.74,-67.68 38.92,-215.93 0.67,-262.12 -25.91,-10.21 -49.47,7.31 -62.96,20.89 -28.08,28.26 9.52,215.85 -29.5,239.46 -27.19,7.36 -49.79,4.2 -63.6,-9.94 -19.56,-55.81 36.92,-193.2 -4.93,-269.44 -112.06,7.1 -72.24,188.42 -69.33,230.78 2.79,40.59 -29.53,49.09 -60.75,33.97 -39.52,-19.14 -24.7,-136.28 -27.3,-184.79 -3.08,-57.5 -26.87,-166.9 53.43,-143.8zm-262.15 -280.56c18.27,-14.88 37.82,12.33 43.56,27.61 9.1,24.17 -0.27,45.57 -7.92,65.04 -45.16,114.86 -110.99,106.71 -111.94,62.65 -0.38,-17.98 62.78,-144.29 76.3,-155.3zm72.74 165.76c16.85,-57.93 62.99,-102.99 22.29,-174.66 -24.89,-43.85 -88.78,-89.6 -140.47,-36.11 -19.17,19.84 -29.32,43.5 -41.79,72.41 -12.99,30.15 -23.52,44.68 -36.86,72.09 -29.97,61.5 -6.33,124.66 46.14,143.05 -6.52,27.02 -17.46,50.04 -24.34,80.65 -2.71,12.04 -5.01,32.54 -8.97,42.83 -5.63,14.6 -49.75,55.55 -26.38,113.69 6.31,15.71 13.9,20.95 19.54,32.45 7.29,14.86 26.81,130.47 123.76,133.38 53.79,1.61 104.4,-46.77 148.23,-62.25 6.78,66.68 69.82,114.25 146.02,87.7 27.36,-9.54 16.8,-15.12 37.72,-3.03 62.76,36.28 94.5,25 145.11,0.95 36.86,48.17 187.35,75.28 188.7,-74.24 0.84,-93.86 15.41,-218.09 -23.81,-294.96 -47.25,-92.6 -131.45,-57.37 -173.78,-50.69 -21.79,3.44 -25.36,-11.55 -49.28,-21.84 -65.36,-28.1 -95.99,17.33 -126.78,2.99 -60.42,-28.14 -76.89,-16.73 -121.72,10.48 -34.21,-34.69 -49.81,-53.15 -103.33,-74.9z"/>
   <path class="fil2" d="M5216.36 2143.84c-16.49,-7.93 -39.83,-29.96 -20.66,-55.52 0.05,-0.07 133.6,-81.15 182.52,18.86 34.17,69.84 49.74,235.33 8.18,299.65 -43.57,8.36 -64.91,-5.13 -61.41,-48.56 -49.57,25.22 -130.56,42.28 -166.24,-10.73 -11.73,-92.1 113.88,-136.91 173.41,-176.97 -11.76,-106.33 -78.88,-34.19 -115.81,-26.74zm369.25 -98.51c-0.1,-56.86 10.39,-133.41 75.85,-82.31 29.63,23.14 4.3,112.86 6.24,160.07 2.49,60.66 7.61,120.56 9.49,181.58 1.52,48.9 21.28,132.7 7.64,171.71 -101.15,34.31 -85.34,-97.85 -86.2,-176.67 -0.94,-85.72 -12.89,-168.54 -13.03,-254.39zm-39.5 396.74c-21.6,6.74 -47.91,4.47 -66.54,-10.06 -18.77,-14.63 -15.78,-34.6 -17.14,-64.33 -2.44,-52.91 -2.32,-106.69 -5.32,-159.03 -3.37,-58.76 -26.37,-261.29 5.93,-294.87 15.81,-16.44 44.06,-9.56 60.66,5.46 19.23,17.4 15.16,34.83 11,65.91 -18.79,140.3 23.53,414.19 11.41,456.91zm-125.1 19.27c20.33,24.13 61.25,52.37 113.13,47.27 47.89,-4.71 19.29,-10.03 57.69,13.7 15.53,9.6 36.56,18.07 56.97,20.56 141.69,17.22 97.53,-151.48 93.06,-201.93 -7.4,-83.4 -17.06,-223.06 -6.59,-301.99 7.69,-57.96 3.53,-90.56 -29.81,-120.14 -28.14,-24.98 -73.99,-39.56 -120.88,-25.89 -29.28,-28.37 -83.11,-76.85 -148.55,-37.07 -46.57,28.3 -50.64,88.8 -52.76,159.83 -42.97,-14.5 -50.14,-25.83 -106.57,-18.07 -31.7,4.36 -76.21,15.62 -101.43,28.66 -72.87,37.69 -55.4,125.34 -1.95,165.99 -28.24,28.45 -55.85,46.52 -72.45,101.64 -52.28,173.65 184.08,148.23 186.86,149.01 35.89,10.15 33.65,46.47 133.29,18.44z"/>
   <path class="fil3" d="M4663.25 1966.26c-80.29,-23.1 -56.51,86.3 -53.43,143.8 2.6,48.52 -12.22,165.66 27.3,184.79 31.22,15.12 63.53,6.61 60.75,-33.97 -2.91,-42.36 -42.73,-223.68 69.33,-230.78 41.86,76.24 -14.63,213.63 4.93,269.44 13.81,14.14 36.41,17.3 63.6,9.94 39.02,-23.6 1.43,-211.2 29.5,-239.46 13.49,-13.58 37.05,-31.1 62.96,-20.89 38.25,46.19 -13.42,194.44 -0.67,262.12 21.23,21.33 39.72,22.23 73.73,12.7 12.25,-27.08 8.6,-40.72 8.52,-74.69 -0.27,-107.19 30.97,-277.51 -83.54,-263.66 -43.11,5.21 -55.25,25.49 -81.66,36.65 -47.13,-133.41 -155.25,7.47 -155.28,7.5 -3.21,-31.83 -2.35,-51.27 -26.03,-63.48z"/>
   <path class="fil2" d="M5830.5 2486.06c-1.48,-41.57 85.34,-92.96 122.5,-13.92 30.81,65.54 -120.63,66.52 -122.5,13.92zm129.73 -410.51c-9.25,75.61 -13.09,153.56 -19.63,229.48 -3.33,38.59 1.96,87.05 -43.23,84.17 -45.61,-2.91 -37.23,-49.19 -35.96,-90.14 2.56,-82.71 1.97,-161.83 3.35,-244.35 1.43,-85.03 110.14,-99.07 95.46,20.84zm-95.78 503.89l72.79 -0.18c23.9,-15.99 38.72,-10.6 60.43,-35 50.39,-56.64 -13.99,-122.22 -17.77,-130.85 -4.8,-10.99 9.16,-51.44 10.97,-72.87 4.79,-56.67 32.61,-302.75 20.11,-338.49 -33.8,-96.68 -192.72,-84.41 -198.79,37.22 -2.98,59.66 1.73,122.1 -1.25,182.5 -2.25,45.61 -12.68,139.45 2.01,176.07 -18.71,20.72 -60.78,54.35 -40.26,114.39 16.58,48.54 46.49,45.48 91.77,67.21z"/>
   <path class="fil3" d="M1647.17 2331.5c-4.17,36.62 -15,87.83 6.28,114.63 66.54,12.66 40.31,-61.37 44.66,-108.33 3.85,-41.47 26.69,-118.72 17.29,-151.44 -1.47,-0.4 -3.75,-2.15 -4.53,-0.61 -0.77,1.5 -3.4,-0.45 -4.46,-0.39 -1.04,0.06 -3.12,-0.14 -4.37,0.01 -15.74,1.74 -95.42,43.17 -110.57,50.68 -43.04,21.33 -104.85,27.23 -79.84,86.45 53.39,8.35 78.44,-42.25 118.98,-46.53 -6.96,4.58 -38.32,43.82 -51.65,56.43 -17.92,16.94 -40.4,36.19 -61.56,52.74 -28.48,22.29 -100.29,83.75 -152.12,74 -44.21,-47.63 17.33,-192.15 40.84,-241.71 14.49,-30.55 68.46,-121.6 91.85,-146.83 24.83,-26.77 23.97,-14.01 58.96,-23.83 8.05,-31.72 19.43,-130.65 -63.62,-63.74 -59.82,48.2 -175.27,268.63 -204.29,361.06 -45.6,145.26 -3.19,222.81 144.05,148.75 51.81,-26.07 120.94,-76.06 163.86,-116.55 10.38,-9.79 40.93,-39.5 50.26,-44.79z"/>
   <path class="fil3" d="M1844.96 2351.85c-33.1,-63.26 8.64,-203.7 58.68,-224.45 65.12,32.01 35.48,241.6 -58.68,224.45zm24.43 -285.33c-33.78,10.3 -99.02,138.29 -113.81,192.69 -67.33,247.58 239.48,159.43 262.99,-39.03 13.44,-113.54 -64.66,-179.42 -149.17,-153.66z"/>
   <path class="fil3" d="M2487.33 2248.11c-8.66,-45.09 72.42,-107.93 99.98,-126.27 0.6,17.16 0.21,37.56 -0.96,54.71 -1.95,28.47 0.01,20.67 -18.38,36.91 -16.44,14.51 -47.51,47.33 -80.65,34.65zm-41.07 -182.83c58.18,14.73 49.63,-63.75 122.21,-53.65 9.45,15.12 14.7,27.73 16.61,53.09 -6.33,2.68 -202.3,144.12 -175.47,235.48 59.44,14.83 136.47,-17.46 164.14,-48.1 7.25,17.11 -8.05,24.21 16.92,33.22 10.95,3.95 34.99,-1.09 43.57,-6.11 43.89,-25.68 31.83,-206.91 12.67,-269.42 -36.86,-120.33 -99.06,-67.28 -180.92,-12 -23.68,16 -35.82,34.04 -19.73,67.49z"/>
   <path class="fil3" d="M5332.1 2305.57c-16.1,13.36 -119.86,65.76 -93.51,-3.48 9.55,-25.09 59.69,-63.41 97.83,-71.27l-4.32 74.75zm-115.74 -161.73c36.93,-7.45 104.04,-79.6 115.81,26.74 -59.53,40.05 -185.14,84.87 -173.41,176.97 35.68,53.01 116.67,35.96 166.24,10.73 -3.5,43.43 17.85,56.92 61.41,48.56 41.55,-64.33 25.98,-229.81 -8.18,-299.65 -48.93,-100 -182.47,-18.93 -182.52,-18.86 -19.17,25.56 4.17,47.59 20.66,55.52z"/>
   <path class="fil3" d="M4419.1 2066.95c3.51,-30.75 12.21,-58.62 24.38,-79.53 30.88,2.11 39.83,16.77 40.71,52.08l-65.09 27.46zm10.24 135.06c-8.34,-8.99 -14.04,-21.94 -15.77,-40.48 -3.84,-41.21 11.07,-31.62 83.41,-69.55 105.44,-55.27 27.12,-151.83 -38.88,-179.18 -40.83,-16.92 -48.39,-11.36 -65.08,18.84 -25.04,45.31 -39.7,104.04 -43.54,165.06 -17.21,6.5 -28.01,8.95 -29.71,30.54 -1.86,23.66 11.02,22.64 24.82,30.21 2.08,37.88 9.19,71.65 30.53,93.69 28.82,29.76 54.19,13.33 86.04,-3.11 34.6,-17.86 141.8,-72.26 117.24,-112.35 -44.41,-40.32 -94.83,83.68 -149.06,66.34z"/>
   <path class="fil3" d="M5546.11 2442.07c12.12,-42.72 -30.2,-316.62 -11.41,-456.91 4.16,-31.08 8.23,-48.51 -11,-65.91 -16.61,-15.02 -44.85,-21.9 -60.66,-5.46 -32.29,33.58 -9.29,236.11 -5.93,294.87 3,52.34 2.87,106.12 5.32,159.03 1.37,29.73 -1.62,49.7 17.14,64.33 18.63,14.53 44.94,16.79 66.54,10.06z"/>
   <path class="fil3" d="M2284.38 2023.37c-38.34,8.09 -58.76,20.01 -49.34,62.67 22.12,6.91 25.62,1.98 49.8,-2.17 -0.07,41.38 -2.15,83.97 -4.27,125.34l-3.92 88.87c0.51,22.64 -3.42,17.73 8.94,28.83 18.45,18.71 54.05,5.47 64.13,-9.66 14.4,-21.62 10.23,-220.41 11.28,-254.75 39.76,-16.31 63.15,-18.11 43.85,-74.15 -25.6,-3.88 -23.23,-0.58 -44.74,7.85 0.25,-45.16 7.44,-115.49 -2.91,-153.58 -96.61,-37.24 -68,112.52 -72.82,180.74z"/>
   <path class="fil3" d="M5585.61 2045.33c0.14,85.85 12.09,168.67 13.03,254.39 0.86,78.82 -14.95,210.98 86.2,176.67 13.64,-39.02 -6.12,-122.82 -7.64,-171.71 -1.89,-61.02 -7,-120.92 -9.49,-181.58 -1.94,-47.22 23.4,-136.94 -6.24,-160.07 -65.46,-51.1 -75.95,25.44 -75.85,82.31z"/>
   <path class="fil3" d="M2083.34 2057.33c-23.07,9.31 -43.13,12.46 -49.72,34.91 -13.12,44.63 24.2,30.03 50.42,25.54 2.77,65.3 -15.34,192.11 -4.23,243.53 77.72,23.32 76.35,-24.89 77.8,-89.37 1.3,-58.27 0.88,-116.18 3.31,-174.47 31.55,-23.99 59.52,-9.88 46.4,-73.3 -17.17,-5.34 -31.09,0.34 -47.58,5.26 0.56,-40.03 6.26,-109.13 -2.65,-141.98 -100.74,-52.28 -68.8,132.17 -73.74,169.89z"/>
   <path class="fil3" d="M5960.22 2075.55c14.68,-119.91 -94.04,-105.87 -95.46,-20.84 -1.38,82.53 -0.79,161.64 -3.35,244.35 -1.27,40.95 -9.66,87.24 35.96,90.14 45.19,2.88 39.9,-45.58 43.23,-84.17 6.54,-75.92 10.38,-153.88 19.63,-229.48z"/>
   <path class="fil2" d="M1844.96 2351.85c94.16,17.16 123.8,-192.44 58.68,-224.45 -50.04,20.74 -91.77,161.18 -58.68,224.45z"/>
   <path class="fil3" d="M4401.1 1685.69c-13.53,11.02 -76.68,137.32 -76.3,155.3 0.95,44.06 66.78,52.21 111.94,-62.65 7.65,-19.47 17.02,-40.86 7.92,-65.04 -5.75,-15.28 -25.29,-42.49 -43.56,-27.61z"/>
   <path class="fil3" d="M5830.5 2486.06c1.87,52.6 153.31,51.62 122.5,-13.92 -37.16,-79.04 -123.98,-27.64 -122.5,13.92z"/>
   <path class="fil2" d="M2487.33 2248.11c33.14,12.68 64.21,-20.14 80.65,-34.65 18.39,-16.24 16.43,-8.44 18.38,-36.91 1.17,-17.14 1.56,-37.55 0.96,-54.71 -27.56,18.34 -108.64,81.18 -99.98,126.27z"/>
   <path class="fil2" d="M5332.1 2305.57l4.32 -74.75c-38.14,7.86 -88.28,46.18 -97.83,71.27 -26.35,69.24 77.41,16.84 93.51,3.48z"/>
   <path class="fil2" d="M4419.1 2066.95l65.09 -27.46c-0.88,-35.31 -9.83,-49.96 -40.71,-52.08 -12.17,20.91 -20.87,48.78 -24.38,79.53z"/>
   <path class="fil4" d="M3357.63 2232.67c-31.22,20.77 -66.13,37.02 -92.18,49.31 -28.17,13.29 -53.14,26.09 -85.48,25.51 -29.89,-0.54 -55.88,-13.01 -77.39,-33.32 -12.72,-12 -22.5,-25.57 -30,-40.19 -3.37,15.01 -8.07,28.01 -14.62,37.01 -34.69,47.59 -114.88,60.05 -160.28,20.17 -11.69,-9.63 -20.24,-17.53 -26.4,-32.62 -6.78,-16.62 -4.51,-25.85 -4.89,-41.6l-0.06 -2.24 4.42 -91.1c0.95,-19.54 2.03,-39.1 2.91,-58.67 -2.52,-0.62 -5.16,-1.32 -7.96,-2.11l-34.64 -9.89 -8.44 -35.02c-7.55,-31.29 -5.87,-63.16 13.34,-90.17 10.46,-14.7 23.83,-24.85 38.8,-32.16 0.09,-1.36 0.19,-2.72 0.29,-4.08 -2.11,-148.1 114.7,-220.91 233.19,-278.42l9.01 -4.37 9.92 -1.3c29.08,-3.82 57.76,1.06 82.91,16.52 55.67,34.21 72.01,105.11 76.08,165.8l1.15 17.16 -7.89 15.28c-2.85,5.52 -5.96,10.91 -9.33,16.12 18.58,8.35 36.33,19.28 52.21,31.76 3.17,2.49 6.25,5.03 9.23,7.6 6.37,-7.17 14.03,-13.35 23.12,-18.33 3.6,-1.96 7.15,-3.59 10.74,-4.99l0.06 -2.57c-0.1,-23.33 -2.02,-46.4 -1.6,-69.94 0.84,-47.84 9,-103.09 52.23,-131.89 25.39,-16.9 55.29,-19.18 84.15,-11.02 9.21,2.61 17.94,6.65 25.87,12.02 49.38,33.42 50.28,101.64 47.8,154.9 -0.32,6.87 -0.89,14.29 -1.51,21.92 7.2,2.91 14.14,6.9 20.71,12.15 12.74,10.18 21.12,22.73 26.04,36.54 40.74,-41.49 93.81,-73.49 154.04,-61.65 -0.56,-45.05 -0.19,-90.24 4.22,-134.92 4.57,-46.23 12.48,-95.35 48.48,-128.52 30.68,-28.27 70.83,-34.45 110.79,-27.63l24.32 4.16 14.77 19.77c48.65,65.17 21.78,152.83 15.1,226.16 -1.65,18.09 -3,36.66 -3.97,55.44 13.73,-5.45 28.23,-9.37 43.54,-11.77 30.19,-4.73 60.46,-0.16 86.7,15.96 70.6,43.38 79.22,146.89 76.96,221.44 -1.25,41.08 -6.05,83.34 -14.14,123.65 -6.14,30.62 -15.23,73.73 -40.66,94.13 -42.29,33.95 -102.96,27.81 -146.19,-0.75l-15.87 -10.49 -6.72 16.12 -24.81 9.44c-31.57,12.01 -63.85,11.25 -96.64,5.47l-34.72 -6.12 -12.38 -33.01c-1.21,-3.2 -2.34,-6.56 -3.42,-10.04 -32.43,15.3 -69.47,25.6 -99.45,30.96 -48.05,8.58 -104.01,9.83 -149.2,-10.96 -1.61,-0.75 -3.2,-1.52 -4.77,-2.33 -35.85,48.04 -113.15,50 -158.63,15.1l-2.98 -2.28 -2.68 -2.63c-12.53,-12.29 -19.49,-25.13 -23.21,-38.49zm419.76 -176.51c-0.11,-3.29 -0.21,-6.48 -0.32,-9.57 -0.39,-11.59 -0.69,-23.17 -0.95,-34.75 -5.43,3.62 -11.07,7.13 -16.85,10.67 -9.1,5.57 -23.23,13.75 -29.71,22.38 -11.1,14.79 -21.13,32.32 -28.14,49.42 5.5,-3.47 10.75,-7.29 15.73,-11.08 17.73,-13.51 38.28,-23.55 60.22,-27.06z"/>
   <path class="fil2" d="M3193.12 2045.08c3.84,-30.75 13.37,-58.63 26.69,-79.54 33.78,2.11 43.57,16.76 44.52,52.06l-71.21 27.47zm-256.49 -104.33c-41.95,8.1 -64.28,20.02 -53.99,62.68 24.19,6.91 28.03,1.98 54.48,-2.18 -0.09,41.38 -2.38,83.97 -4.71,125.34l-4.31 88.88c0.54,22.64 -3.75,17.73 9.78,28.82 20.17,18.71 59.13,5.46 70.16,-9.67 13.46,-18.45 12.13,-166.03 12.17,-230.17 0.79,-7.26 0.85,-15.58 0.51,-24.68 43.34,-16.23 68.77,-18.14 47.71,-74.06 -28.01,-3.88 -25.41,-0.58 -48.94,7.87 0.37,-60.32 10.54,-168.37 100.7,-173.88 14.41,31.38 18.76,61 18.23,89.36 14.41,11.17 39.44,21.96 65.8,-6.3 8.17,-8.75 14.97,-18.51 20.31,-28.88 -4.88,-72.72 -28.11,-133.27 -89.34,-125.23 -111.97,54.33 -201.32,111.71 -198.36,224.61 -0.51,6.35 -0.9,12.95 -1.16,19.82 0.45,6.21 0.93,12.29 1.45,18.25 -0.1,3.28 -0.27,6.44 -0.49,9.43zm923.14 290.91c23.4,4.12 44.64,4.97 63.95,-2.37 13.72,-32.9 -11.75,-117.57 5.49,-176.69 12.04,-41.31 54.86,-100.68 98.02,-103.32 47.61,103.63 -14.51,188.13 -0.11,271.13 16.68,11.02 50.8,22.33 73.5,4.11 21.82,-17.51 83.69,-368.65 -60.65,-346.02 -68.22,10.69 -92.56,60.08 -114.63,86.39 -3.73,-59.38 -1.36,-137.86 3.99,-196.67 5.31,-58.28 28.23,-141.67 -3.08,-183.61 -71.43,-12.2 -81.64,42.71 -87.43,101.35 -5.91,59.88 -3.99,125.82 -2.93,186.15 1.47,83.93 -0.36,294.94 23.87,359.56zm-219.6 -63.7c-27.53,-45.97 11.05,-121.59 40,-160.15 38.56,-51.36 122.4,-47.54 81.74,-132.29 -68.9,-14.2 -131.33,81.04 -159.78,123.38 -28.85,42.94 -97.32,175.68 -26.44,208.29 66.04,30.38 195.37,-7.29 231.82,-42.27 35.2,-33.76 -4.06,-69.84 -52.92,-32.58 -24.45,18.64 -64.29,45.09 -114.42,35.63zm-212.99 -315.62l-1.03 46.75c-26.15,15.85 -49.13,2.48 -56.99,38.65 -9.17,42.21 21.31,36.65 56.2,33.78l-8.3 192.39c-0.79,18.25 -6.91,49.5 7.02,63.16 19.91,15.27 58.29,15.43 71.83,-3.43 13.68,-19.05 10.19,-226.03 11.91,-259.12 21.69,-15.54 48.38,-5.98 54.04,-40.17 7.18,-43.37 -18.14,-46.8 -53.42,-36.82 -3.15,-49.46 23.22,-175.53 -25.04,-189.18 -72.81,-20.6 -56.34,105.8 -56.22,154zm-222.9 327.78c-9.12,-8.98 -15.36,-21.93 -17.25,-40.48 -4.19,-41.21 12.12,-31.62 91.26,-69.56 115.36,-55.29 29.7,-151.84 -42.49,-179.18 -44.67,-16.91 -52.94,-11.35 -71.21,18.86 -27.4,45.31 -43.45,104.04 -47.67,165.07 -18.83,6.5 -30.65,8.96 -32.51,30.55 -2.04,23.66 12.04,22.64 27.15,30.21 2.26,37.88 10.04,71.65 33.37,93.67 31.51,29.76 59.27,13.31 94.13,-3.13 37.86,-17.86 155.13,-72.29 128.28,-112.38 -48.57,-40.31 -103.75,83.7 -163.07,66.37z"/>
  </g>
 </g>
</svg>
