<?xml version="1.0" encoding="UTF-8"?>
<!DOCTYPE svg PUBLIC "-//W3C//DTD SVG 1.1//EN" "http://www.w3.org/Graphics/SVG/1.1/DTD/svg11.dtd">
<!-- Creator: CorelDRAW 2019 (64-Bit) -->
<svg xmlns="http://www.w3.org/2000/svg" xml:space="preserve" width="21.5533mm" height="21.1874mm" version="1.1" style="shape-rendering:geometricPrecision; text-rendering:geometricPrecision; image-rendering:optimizeQuality; fill-rule:evenodd; clip-rule:evenodd"
viewBox="0 0 305.06 299.88"
 xmlns:xlink="http://www.w3.org/1999/xlink"
 xmlns:xodm="http://www.corel.com/coreldraw/odm/2003">
 <defs>
  <style type="text/css">
   <![CDATA[
    .fil0 {fill:#8D2B29}
   ]]>
  </style>
 </defs>
 <g id="Livello_x0020_1">
  <metadata id="CorelCorpID_0Corel-Layer"/>
  <path class="fil0" d="M218.49 184.97c7.29,-0.01 14.58,2.75 20.12,8.28l64.08 64.09c3.16,3.16 3.16,8.32 0,11.48l-28.7 28.7c-3.16,3.16 -8.32,3.16 -11.48,0l-64.09 -64.08c-5.15,-5.15 -7.9,-11.82 -8.24,-18.6 -19.84,14.75 -44.41,23.48 -71.03,23.48 -65.81,0 -119.16,-53.35 -119.16,-119.16 0,-65.81 53.35,-119.16 119.16,-119.16 65.81,0 119.16,53.35 119.16,119.16 0,24.33 -7.3,46.96 -19.82,65.82zm-99.34 -151.47c47.31,0 85.65,38.35 85.65,85.66 0,47.31 -38.35,85.66 -85.65,85.66 -47.31,0 -85.66,-38.35 -85.66,-85.66 0,-47.31 38.35,-85.66 85.66,-85.66z"/>
 </g>
</svg>
